<?xml version="1.0" encoding="UTF-8"?>
<svg version="1.1" viewBox="0 0 2000 2000" width="500" height="499" xmlns="http://www.w3.org/2000/svg">
<path transform="translate(1037,699)" d="m0 0h6l29 13 35 17 16 8 16 10 17 9 25 9 30 12 25 9 22 6 21 8 13 4 38 7 25 7 26 10 6 4-3 2-9 3-11 7-17 12-21 16-18 13-27 18v2l2 1h6l11-6 15-11 13-9 20-13 12-8 21-16 8-4-2 4-9 8-13 10-11 9-15 10-14 9-16 13-13 12h-2l1 4h5l11-8 24-13 12-8 14-11 10-9 10-6 9-6 6-3-2 5-14 11-13 10-13 11-13 12-11 9-14 11-6 4 1 4 1 1h5l13-9 13-11 11-9 13-10 8-5 2 1-13 11-11 9-13 12-10 10-8 6 1 5 3 1 9-6 14-12 13-10 14-10 16-12 19-14 8-5h2l-2 4-13 11-9 7-13 11-11 9-14 12-10 9-10 10-7 6-6-1-21-13-13-10-18-14-20-12-20-9-21-7-19-5-8 1-42 9-7 1h-23l-21-4-27-10-23-7-5-1-28 1-12 1-5 2h-13l-3-1h-7l-3 1-2 5-1 3h11l35 4 22 5 23 7 12 5 10 9 3 7 1 5v9l-3 10-11 18-4 12 1 11 4 8 11 12 9 10 5 6 5 1v-9l-1-2v-6l4 2 5 6 1 3v7l-4 6-7 7-11 7-12 5-14 4-46 10-31 4-43 5-15 2-26 1-22-1-17-2-16-1v-1l44-1 34-2 27-4 20-6 15-2 20-2 16-4 63-23-4-8-5-6-4 2-16 6-33 8-48 8-26 5-19 2h-16l-27-1-2-2 32-2 30-4 18-6 11-4 24-4 36-9 18-6 7-4-1-6-2-5-5 1-11 5-19 5-39 8-44 9-20 3-15 1h-39l-31-3-28-6-2-2 11 1 8 1 31 1h46l19-1 30-9 18-5 31-5 16-5 16-7 10-6 2-5h-10v-3l18-6 11-7 7-7 4-7 1-4-30 11-24 6-17 3-39 4-31 2h-66l-35-2-46-5-26-5-20-6-15-7h-3l1 5 4 6 9 8 14 6 17 6v2l-25-1-4-1 1 4v12l-3 9-6 8-13 13-11 14-10 15-11 18-7 14-2 7 19 10 15 6 14 3 16 2 13 5 17 9 14 8 11 6 18 8 14 6 8 5 12 3 15 2 5 2 36 6 16 4 27 3 19 4-1-5-4-5-18-3-4-1-55-3-6-1v-1h27l11-2h5l-1-5-18-5-4-1h-15l-41-6-22-6 1-2 10 2h9l11-4 23 3-4-15-1-16 3-7 6-3 14 1 29 3 12 1h26l10-2 11-5h21l27-4 43-10 21-5 14-5 2-1-1-6-5-9v-3l5-4 4 1 10 14 6-1 1-7-6-14v-4l5 1 12 11 4 6-1 7-6 8-13 8-19 7-22 6-45 9-33 4-30 3-4 1 2 4 24 9 20 9 13-1 1 1 1 7 11 8 3 2h20l10-2 9-7 3-4 1-5-27 2h-6l2-2 31-11 6-3 10-9 7-6-2 4-7 9-2 4h6l9-6 6-7 1-6-1-10 5-5h4l9 27v2l7-2 8-6-1-5-4-5-4-4v-2l7 1 8 6 4 6-1 6-7 7-8 5-15 5-17 4-5 7-2 5 20-6 9-3h3v27l-3 19-8 29-7 23 2 5 14 11 15 10 27 16 19 13 17 13 13 11 6 5v2l-6-2-22-13-18-12-21-13-24-13-11-7-12-9-9-8-9-11-12-15-12-17-11-14-11-12-7-7-13-9-15-9-23-12-38-15-9-4h-3l-5 14-5 5 1-7v-14l-5-1h-13l-2 12-4 6-4 2-12-1-12-5-3-4 11 2 13 1 4-3 1-5-3-7-6-2-8-1h-16l-6 5v8l6 12 9 8 14 7 14 3h7l6-1 4 7 21 6 11 7 20 20 7 8 5 6 10 8v2l-6-2-11-7-4-2-4 1-19-8-20-6-27-7-40-6-36-4-19-7-21-11-16-8-25-15-13-6-8-2h-16l-8 4-2 5 4 6 22 18 11 8 10 9 11 9 12 9 14 9 10 5 4 1 1-6 4-9 2 1-1 8-3 8 12 3 34 9 26 7 16 3 3 2 2 9 6 8-2 1-15-8-14-5-36-8-28-5-23-6h-6l-2-2-3-7-15-12-13-8-10-7-10-8-11-6-9-2-11 1-6 4-4 5 1 5 18 20 4 5 10 7 10 8 12 10 17 12 19 14 8 7h4l4-8 2-5h2l-2 11-2 8 15 2 30 7 26 5v-3l6 1 9 7 10 8 11 6 10 9 8 2 16-8 2 1-6 8v2l6 1h12l8-4h2v5h9l8-2 5-3 2-4-2-1-12-1-5 1v-3l-11-3-19-3-20-5-10-4-13-1 1-4 11-10 7-13 4 1 3 13 2 4 12 7 13 4 40 6 13 3h5l8-7h2l-1 4-3 7 8-2 8-4h2l-2 5-1 4 7 2 6-1 18-9 2 1-11 9-1 4 3 1h10l16-4 18-6 2 1-19 10-6 4v2l4 1 12-3 16-3 20-7 5-2 3 1-14 7-22 9h-3l1 4 2 1h8l28-5 35-12 3 1-9 4-25 9-19 10-2 2 1 5 1 2-9-3-15-7-20-8-28-6-5-1h-7l-5 5-1 3 13 3 8-4 3 1-2 3v4l16 6 7 4-3 1-24-5h-8l-6 4-7 6v3l10-1 15-2-2 7 1 1h9l33-7 20-4 32-10 24-8 9-2v3l-69 23-23 11h-2l1 3 10 2 15-6 31-6 19-7 28-12 16-7 11-3-3 3-28 12-16 8-31 16-15 7h-2l1 5h7l12-5 14-4 12-3 35-15 24-11 10-4v3l-13 8-26 14-21 10-17 9-14 6 4 4 2 1h7l25-12 19-10 26-11 7-1-3 3-12 6-14 10-13 8-24 13-3 3 1 2h6l21-11 13-8 19-9 14-6 7-1-4 4-27 15-19 12-15 9-7 4h-2l1 5 17-1 16-8 20-12 16-10 20-12h4l-6 7-18 13-30 20-22 14-9 8-13 9-10-3-22-12-13-8-38-19-12-7-27-11-18-6-5-1-34-2-104-1-19-2-14-3-29-9-16-3-25-2-8-7-10-13-14-22-7-9-9-8-21-13-9-6-5-5-5-10-8-12-11-14-7-19-9-30-5-22-1-9v-27l3-20 5-19 6-16 10-18 12-17 8-10 9-10 7-8 9-10 4-8 1-12-4-11-11-19-3-10v-8l3-10 5-6 11-7 12-5 28-7 25-4 25-3 38-2 10-1 3-8 2-11v-6l-19 4-16 2-9 4h-11l-8-4-4-5-3-9 3-5 10-5 37-13 20-8 9-6 10-9 7-7 11-14 7-11 9-14 6-3 13-4 28-13 27-13 17-10 21-12zm-5 16-19 9-16 8-37 16-18 10-10 8-7 9-16 27-13 23-4 10-1 7v39l3 6h2l1 7 5 1 41 1 36 2 22 2 25 5 16 6 8 5 1 6-8 6-23 7-23 4-39 4-21 1h-49l-42-2-49-3-25-4-21-5-8-4-5-4 1-6 8-5 14-4 25-5 24-3 53-4v-8h-20l-29 2-28 4-24 5-25 7-12 6-6 5-2 6 7 8 18 8 13 4 34 7 17 3 25 2 28 1h63l30-1 25-2 38-6 26-6 16-6 11-7 3-3-1-7-8-7-11-5-19-5-31-5-20-4-32-4-34-2-15 1 10-11 6-9 1-8-6-16v-9l6-9 8-6 11-6 7-7 9-14v-10l7 4 8-1 19-8 13-5 10-8 4-5 2-4 2-1v14l3 6 16 4 11 1 15-4v8l1 1 10-1-4 4-16 8-18 8-14 4-59 8-17 4-11 4-10 7-5 7-1 3v7l6 8 10 7 11 4 5 1h46l15-1 24-5 24-9 8-4-4 5-3 2v3l9-2 14-5h2l-14 8-6 5-1 3 7 1 28-11 11-5h2l-22 12-9 7v3h7l16-6 20-7 10-5h2l-15 8-8 4-14 10 2 2 6-1 26-13 23-13 14-7h3l-25 14-14 10-11 10v2l3 1 10-4 20-11 26-12-5 4-11 8-8 7-1 3 8-1 28-12 16-8 13-5-2 2-16 8 3 1 12-5 15-6 15-5 15-8 10-6 6-3-17 12-15 10-22 11-11 7-6 5 2 3 8-1 24-12 22-12 29-17 14-9-5 4-10 7-23 14-17 12-11 9-9 6v3l6 1 10-6 17-8 15-9 20-13 10-6-4 4-19 13-12 9-16 13-9 6v4l6 2 9-6 19-9 23-14 19-12-4 4-19 14-14 10-17 11-6 4 1 4 3 1 25-14 23-13 19-13 18-13 10-7 2-4-9-4-23-7-35-7-17-5-20-8-17-7-36-11-36-12-25-9-17-8-22-12-29-14-26-10-18-3zm-22 57-9 7-18 18-1 4 6-1 13-10 9-8 3-5-2-5zm9 6-6 7v2l5-2 4-4-1-3zm-34 6-8 6-5 6 1 2 12-7 5-6v-1zm-14 2-5 3-3 4 1 1h6l4-5-1-3zm67 0-5 3-6 5-1 4 5-1 8-8 1-3zm-153 34-6 7-3 7v30l-4 23 1 7 1 2 9-1 3-5v-31l-2-9v-13l4-17zm-23 6-8 4-6 7-6 9 1 4 4-1 5-5 8-10 4-4-11 16v5l7-1 10-14 1-5-4-4zm-20 8-30 10-4 3 1 5 5 5 4 2 7-1 10-8 5-5 5-6 1-5zm361 28m-315 34-9 6-3 3h-5l-2-5-2-2h-21l-42 4-33 5-15 4-6 3-1 1v5l1 1 7-1 13-3 31-4 2-1-1 2-23 3-3 2 1 3h16l4-1v2l2 1 12 1h32l8-1v-3l-8-2h34l10-1 1-1h14l1 1 8 1 23 1 15 4h28l17-2-1-3 5 2h14l-1-2-22-4-4-3 30 4 22 4 1-4-6-4-19-6-24-4-44-4-47-2zm29 26-1 3-11 2-20-1-3-3v2l-6-2h-9l2 3 19 3h26l5-2-1-5zm-246 163-2 9v6l3 3h-4l-2 10v10l7 3 9 2 18 8 12 5 7 1v-4l-10-10-12-8-12-9-2-2 14 6 5-2 4-5 1-4-8-5-16-8-9-6zm422 34-5 5-5 10v1l9-1 8-5 4-7v-3zm-427 5-1 3v15l2 4 3 1h9l10 2h7l5-3-1-4-16-8-10-6zm453 11-10 3-6 4-3 5v2l8-1 11-3 3-3 1-7zm-70 5-3 1 2 4 8 7 5 2h10l6-4 4-5-1-4-28-1zm42 0-8 5-3 5v2h8l8-5 1-6-1-1zm-425 10 2 18 3 9 16 8 8 1-2-5-4-6-7-5 1-5 2-7-5-5-9-3zm451 2-20 3-30 1-4 2 6 8 6 4 24-3 11-4 8-7zm-6 18-29 1-6 1 6 9 6 5 16-3 5-3 7-5 1-5zm-438 11-1 2 4 11 6 7 13 4 13 3h5l1-5-9-8-26-13zm428 10-8 2 2 5 7 8 4-1 4-5 2-9zm-414 24-5 4 1 7 15 25 2 2 5-1v-7l-5-10 5 4 10 16 7 3 5-1v6l1 1h7l9-2-7 5 1 4 4 2 11-1-5 5 2 4 5 1 13-4-5 4-2 2 1 4 5 2h8l-2 4 1 4 1 1h7l18-4h2l-8 5-2 3 4 3 7 2 9-1 9-2-3 5 3 3h13v2h-10l-1 2 3 5 7 2h18l36 4h9l-1 2-13 3 1 4 7 3h11l15-4 16-6h25v2l-9 1-15 4-1 4h15l18 1h21l12-6 8-2-3 4 1 4h9l15-6 6-4 2-4-11-3-5 1-5 2 2-5-3-1h-13l-5 5-8 7-1-3 9-8-1-3-12-1-4 5-2 1v-6l-29-1-15-1-10-2-2 1h-28l5-5 6-7 1-5-6-5-14-5-8-7-4-1-58-5-10-2h-10l-2 2-6-1-3-3h-2l-2-6-5-3-5-2-4-3-9-1v-3l-5-4-25-13-5-5-10-8-12-7-6-2zm27 0 3 6 10 10 14 7h4l-2-5-6-7-10-8-8-3zm281 85-5 5-1 4 4 2 7-1 6-7v-2l-4-1zm17 4-4 6 1 4 13 2 6-5 1-4-11-3zm-237 17 1 6 5 9 7 1 1-1v-5l-9-9zm27 12 1 4 17 2 33 10h10l1-1v-5l-10-5-16-4h-21l-3-1zm76 17-1 5 1 1h9l2-4-3-2z" fill="#060607"/>
<path transform="translate(677,1275)" d="m0 0h6l11 7 1 3-30 6-30 8-21 8-13 7-6 5-4 7 1 7 7 8 17 9 24 9 22 6 36 7 42 6 41 4 52 3 20 1h91l29-1 41-3h22l12 4 16 8 8 6 7 6 3 3-5-2-8-4-11-1-6-4-3-4-7-1-9 2 4 4 11 5 19 7 15 6 20 7 17 8 9 7v3l-45 9-35 5-28 3-48 3-22 1h-109l-55-3-40-4-46-6-40-8-26-7-19-7-16-8-11-7-9-9-5-8-1-3v-13l2-55 2-6 6-8 10-8 16-8 19-7 25-8zm-89 80v11l1 16 2 2 1-1v-26zm10 4v35l1 7 3 2h3l2-34v-7l-6-3zm14 6-1 6-1 20v19l7 3 1-1 2-30v-14l-4-3zm11 4v23l2 25 3 3 6 2h4l1-12 1-35-5-3-8-3zm22 6-1 1v15l1 31 1 3 16 4 1-5 1-41-2-4-15-4zm21 6-1 1 1 35 3 13 9 1 1-34h3l1 36 9 2 44 7 40 4 37 3 47 2h73l30-1 14-1 3-2-10-7-37-18-4-2 43 15 16 7 7 4h6l2-1-2-4-10-6-24-13-3-2 18 7 16 6 20 9 5 2h13v-3l-14-9-39-20-26-12-6-1h-74l-56-2-58-4-56-6-36-6zm345 14-14 2 1 3 11 5 46 16 26 10 7 2h7v-2l-17-8-16-9-8-5-18-8-13-6zm-44 3-4 2 5 4 18 8 56 22 16 6h9l2-2-6-5-18-10-27-13-30-12z" fill="#050506"/>
<path transform="translate(1015,753)" d="m0 0h2l1 14 2 5 16 4 11 1 12-3h3l1 8h10l-2 4-16 8-20 9-14 4-59 8-17 4-11 4-10 7-4 6-1 3v7l5 7 10 7 11 4 5 1h46l15-1 24-5 24-9 6-3h2l-2 4-4 3-1 3 23-8 3 1-15 9-5 4v3l8-1 30-12 6-3 3 1-16 9-14 9-2 3h7l16-6 20-7 10-5 3 1-10 6-14 7-13 9 4 1 23-11 24-13 12-7 11-4-1 3-25 14-14 10-10 9-1 2 9-2 21-11 30-15 2 1-5 4-13 9-8 7-1 2 7-1 28-12 16-8 14-5-1 3-17 8 10-3 11-5 23-8 15-8 10-6 7-4 2 1-16 11-14 10-27 14-11 7-5 5 1 1 8-1 24-12 22-12 29-17 14-9 2 1-14 10-26 16-17 12-11 9-7 5h-2v3h6l10-6 17-8 15-9 20-13 10-6 2 1-12 9-14 10-11 8-16 13-9 6v2l6 2 9-6 19-9 23-14 19-12 2 1-18 14-11 8-27 18-5 3v3l3 1 25-14 23-13 19-13 18-13 10-7 1-4 5-1v4l4-1-4 4-11 7-18 13-21 16-18 13-23 15v2l2 1h6l11-6 15-11 13-9 20-13 12-8 21-16 8-4-2 4-9 8-13 10-11 9-15 10-14 9-16 13-13 12h-2l1 4h5l11-8 24-13 12-8 14-11 10-9 10-6 9-6 6-3-2 5-14 11-13 10-13 11-13 12-11 9-14 11-6 4 1 4 1 1h5l13-9 13-11 11-9 13-10 8-5 2 1-13 11-11 9-13 12-10 10-8 6 1 5 3 1 9-6 14-12 13-10 14-10 16-12 19-14 8-5h2l-2 4-13 11-9 7-13 11-11 9-14 12-10 9-10 10-7 6-6-1-21-13-13-10-18-14-20-12-20-9-21-7-19-5-8 1-42 9-7 1h-23l-21-4-27-10-23-7-5-1-28 1-12 1-5 2h-13l-3-1h-7l-3 1-2 5-1 3h11l35 4 1 4 9 2 7 3-2 3-11-1-17-3-16-3-32-4-34-2-16 1 6-8 6-7 5-9-1-8-5-13v-9l6-9 7-6 13-7 8-9 7-11 1-10 5 2 7 1 35-14 10-8zm-5 19-9 7-18 18-1 4 6-1 13-10 9-8 3-5-2-5zm9 6-6 7v2l5-2 4-4-1-3zm-34 6-8 6-5 6 1 2 12-7 5-6v-1zm-14 2-5 3-3 4 1 1h6l4-5-1-3zm67 0-5 3-6 5-1 4 5-1 8-8 1-3z" fill="#060607"/>
<path transform="translate(1118,1028)" d="m0 0 5 1 12 11 4 6-1 7-6 8-13 8-19 7-22 6-45 9-33 4-30 3-4 1 2 4 24 9 20 9 13-1 1 1 1 7 11 8 3 2h20l10-2 9-7 3-4 1-5-27 2h-6l2-2 31-11 6-3 10-9 7-6-2 4-7 9-2 4h6l9-6 6-7 1-6-1-10 5-5h4l9 27v2l7-2 8-6-1-5-4-5-4-4v-2l7 1 8 6 4 6-1 6-7 7-8 5-15 5-17 4-5 7-2 5 20-6 9-3h3v27l-3 19-8 29-7 23 2 5 14 11 15 10 27 16 19 13 17 13 13 11 6 5v2l-6-2-22-13-18-12-21-13-24-13-11-7-12-9-9-8-9-11-12-15-12-17-11-14-11-12-7-7-13-9-15-9-23-12-38-15-9-4h-3l-5 14-5 5 1-7v-14l-5-1h-13l-2 12-4 6-4 2-12-1-12-5-3-4 11 2 13 1 4-3 1-5-3-7-6-2-8-1h-16l-6 5v8l6 12 9 8 14 7 14 3h7l6-1 4 7 21 6 11 7 20 20 7 8 5 6 10 8v2l-6-2-11-7-4-2-4 1-19-8-20-6-17-5-2-4h13l26 5-1-5-4-5-18-3-4-1-55-3-6-1v-1h27l11-2h5l-1-5-18-5-4-1h-15l-41-6-22-6 1-2 10 2h9l11-4 23 3-4-15-1-16 3-7 6-3 14 1 29 3 12 1h26l10-2 11-5h21l27-4 43-10 21-5 14-5 2-1-1-6-5-9v-3l5-4 4 1 10 14 6-1 1-7-6-14zm-25 91-5 5-5 10v1l9-1 8-5 4-7v-3zm26 16-10 3-6 4-3 5v2l8-1 11-3 3-3 1-7zm-70 5-3 1 2 4 8 7 5 2h10l6-4 4-5-1-4-28-1zm42 0-8 5-3 5v2h8l8-5 1-6-1-1zm26 12-20 3-30 1-4 2 6 8 6 4 24-3 11-4 8-7zm-6 18-29 1-6 1 6 9 6 5 16-3 5-3 7-5 1-5zm-10 21-8 2 2 5 7 8 4-1 4-5 2-9z" fill="#070708"/>
<path transform="translate(1030,907)" d="m0 0 7 1 10 5 5 5-1 5-8 6-23 7-23 4-39 4-21 1h-49l-42-2-49-3-25-4-21-5-8-4-6-5 1-6 5-4 7-3h10l-1 2-9 4v5l7-1 13-3 31-4h2l-1 3-23 3-2 1v2h20v2l14 1h32l8-1-4-2-9-2v-1h39l10-1 1-1h14l1 1 8 1 23 1 15 4h28l16-2v-2l5 1h13l-22-4-5-3 1-2 30 4 22 4-1-4-10-4v-2zm-113 15-1 3-11 2-20-1-3-3v2l-6-2h-9l2 3 19 3h26l5-2-1-5z" fill="#050506"/>
<path transform="translate(1013,1591)" d="m0 0 8 1 9 4 8 6 9 10 13 18 15 22 13 18 3 4v2l4 1 2-30v-52l4-3 5-1 7 3 4 5-1 10-3 12-1 8-1 59-1 17-3 7-6 1-9-7-10-13-13-20-18-27-10-14-8-9-2-1-2 16v67l-6 7-9 2-5-3 1-9 3-15 1-15v-64l-2-8v-8z" fill="#040405"/>
<path transform="translate(221,1586)" d="m0 0h27l14 3 9 4 7 6 6 12 1 13-2 9-6 11-11 14 1 8 9 19 10 14 6 8v5l-3 3-9-1-8-7-10-15-11-19-6-7-2-1h-9l-6 4-4 8v15l2 14-5 6-3 1h-12l-5-5-1-5 4-11v-103l5-2zm13 11-9 3-3 5-1 8v27l1 8 3 2 8 1h9l9-2 9-6 5-7 2-8v-10l-3-9-7-8-6-3-6-1z" fill="#040405"/>
<path transform="translate(1399,1586)" d="m0 0h28l14 3 10 5 8 9 4 13v10l-4 11-7 11-8 10 1 9 8 16 10 15 7 10v5l-2 1h-8l-7-4-8-11-9-15-7-11-5-6-5-2-9 1-5 5-3 8v9l1 8v13l-6 4-8 1-8-2-3-6 2-9 3-9v-55l-1-26-1-17 1-2 4-1zm14 11-8 2-3 3-2 8v32l2 7 7 2h9l11-2 10-7 5-8 1-6v-12l-3-8-5-6-8-4-6-1z" fill="#030304"/>
<path transform="translate(1598,1586)" d="m0 0h7l6 4 6 10 15 42 14 40 7 16 1 6-4 6-6 3h-7l-4-3-8-25-5-7-9-2h-21l-12 2-5 8-9 26-1 1h-5l-7-6-1-9 9-19 16-47 9-25 8-16zm2 21-7 14-7 19-5 18v5l1 1h28l7-2v-7l-6-26-6-17-2-4z" fill="#040405"/>
<path transform="translate(873,1585)" d="m0 0 7 1 7 8 5 10 15 42 11 32 9 21-1 8-5 5-10 1-4-2-5-16-5-13-4-5-8-1h-23l-10 2-4 4-6 16-5 15-7-1-5-6-1-2v-7l9-19 16-47 9-25 8-16 5-4zm0 22-3 5-11 29-5 18 1 5h30l6-1v-7l-7-28-6-17-3-4z" fill="#040405"/>
<path transform="translate(61,1586)" d="m0 0h7l8 7 7 15 26 74 7 17v6l-5 6-2 1h-10l-4-6-7-21-4-7-6-2h-28l-11 2-6 15-5 17-2 3-6-1-5-5-2-3 1-8 9-19 17-50 10-26 6-11zm1 21-5 10-9 25-4 15v6l1 1h31l5-1-1-11-7-26-5-13-3-6z" fill="#040405"/>
<path transform="translate(704,1583)" d="m0 0 16 1 10 3 7 6 3 8-1 7-2 3-5-1-13-8-10-3h-11l-8 3-5 4-3 7v7l3 6 7 6 32 16 9 6 7 8 4 9 1 5v9l-3 10-7 10-9 6-11 4-7 1h-12l-16-3-10-4-6-6-2-9 2-8 5 1 12 9 12 5h19l8-5h2l2-5 1-3v-11l-3-6-7-6-17-9-16-8-12-11-5-9-1-4v-12l4-11 6-7 9-6 13-4z" fill="#040405"/>
<path transform="translate(1794,1587)" d="m0 0 15 1 5 4 1 7-2 4-31-1-11 1-5 3-3 6-1 5v17l3 7 6 3h10l5-1h9l5 3 2 4-1 9-4 2h-15l-9 2-6 4-3 4-3 11-1 27-5 5h-10l-6-3-3-7 3-10 1-9v-74l-2-11v-7l8-2 31-3z" fill="#040405"/>
<path transform="translate(1250,1587)" d="m0 0h15l12 3 8 5 5 7v10l-1 2-6-1-14-8-10-3h-12l-11 4-8 7-6 9-4 14-1 21 2 15 5 14 7 8 12 6 5 1h15l16-6 10-5 4 1 1 5-7 9-11 7-10 3-8 1h-12l-12-2-10-4-9-7-8-9-6-12-3-11-1-7v-20l3-16 5-12 7-10 8-8 8-5 11-4z" fill="#040405"/>
<path transform="translate(403,1586)" d="m0 0h56l6 2 2 6-1 9-3 2-13-3h-10l-8 3-3 6-1 5-1 53v18l2 12 2 9-3 5-6 3h-10l-7-3-2-4 1-9 3-8 1-20v-60l-3-7-5-3h-10l-18 4-2-2v-10l2-5 2-1z" fill="#050405"/>
<path transform="translate(1925,1586)" d="m0 0h55l5 2 2 3v10l-2 3-8-1-7-1h-10l-7 3-3 4-2 13v74l2 5 1 7-4 6-6 2h-7l-7-2-3-3v-9l3-7 1-7 1-35v-35l-2-11-3-4-4-1h-8l-16 4h-5l-1-9 2-7 3-2z" fill="#050506"/>
<path transform="translate(667,1124)" d="m0 0 12 2 19 8 14 6 10 2-1-1 1-3v2l5 1-1-3 4 1 11 9 11 8 13 12 13 10 15 10 12 6 4 1 1-6 4-9 2 1-1 8-3 8 12 3 34 9 26 7 16 3 3 2 2 9 6 8-2 1-15-8-14-5-36-8-28-5-23-6h-6l-2-2-3-7-15-12-13-8-10-7-10-8-11-6-9-2-11 1-6 4-4 5 1 5 2 3-1 3h-1v4l-4-2-5-5-4-3 1-5 2-7-4-4-7-3 1-4 5-1 10 2h7l4-2v-3l-16-8-10-6-7-4z" fill="#050506"/>
<path transform="translate(556,1587)" d="m0 0h13l7 3 2 2-1 7-3 8-1 6-1 17v59l2 10 3 7-1 7-6 3h-14l-10-3-1-1 1-9 4-12 1-7v-68l-2-9-5-11 2-5 6-3z" fill="#040405"/>
<path transform="translate(286,1794)" d="m0 0 7 1 4 6 9 21 13 30 3 4 5-10 12-27 8-17 3-6 1-1h8l1 1 1 74-1 1h-7l-1-1-1-9-1-42-1-2-7 14-11 28-6 12-6-1-4-5-8-18-9-22-5-9-1 17v37l-1 1h-7l-2-4v-29l1-43z" fill="#343334"/>
<path transform="translate(674,1084)" d="m0 0 6 2 21 10 14 4 22 3 13 5 17 9 14 8 11 6 18 8 14 6 8 5 12 3 15 2 5 2 36 6 16 4 12 1-4 2 1 3-36-6-50-6-19-7-21-11-16-8-25-15-13-6-8-2h-16l-8 4-2 5 4 6 11 9 1 5-5-1 1 1-1 2-3-1-1-4-9-9-12-8-12-9-4-4 10 3 6 3 5-2 4-6-1-3-21-10-10-7z" fill="#080809"/>
<path transform="translate(594,1793)" d="m0 0h27l10 2 6 4 6 10 1 3v10l-4 8-7 6-8 3 6 12 12 18v2l-3 1-7-3-10-14-9-15-13-2 1 31-1 2h-8l-1-2v-29l1-46zm16 7-8 1-1 2v25l1 3 17 1 10-2 5-5 1-2v-12l-4-7-6-3-6-1z" fill="#333233"/>
<path transform="translate(1123,1073)" d="m0 0 3 1 9 27v2l7-2 8-6-1-5-4-5-4-4v-2l7 1 8 6 4 6-1 6-7 7-8 5-15 5-17 4-5 7-4-2 1-5-11 1-4 4-5 10 3 2h-7v-2l-3-1 6-8 1-5-27 2h-6l2-2 31-11 6-3 10-9 7-6-2 4-7 9-2 4h6l9-6 6-7 1-6-1-10 5-5z" fill="#060607"/>
<path transform="translate(1548,1792)" d="m0 0 13 1 11 4 10 9 4 8v4h-5l-13-13-10-4h-12l-9 4-5 5-4 6-3 11v13l3 9 8 9 9 4 8 1 12-3 8-6 7-8h7l-1 6-6 8-8 7-10 4-11 1-13-2-10-6-7-8-5-11-1-4v-17l3-10 7-11 9-7 8-3z" fill="#323132"/>
<path transform="translate(725,1301)" d="m0 0h2l-1 5-8 6-8 3-14 3-29 2-13 3-7 4-1 4 6 2 26 2 22 1 11 2 3 2-1 4-6 8-1 3 13 4 7 1h58l8 1-1 5h-17l-12-1-9-1-4 1h-20l-18-3-8-4-3-2 1-7 3-5v-2l-12-2h-48l-6-3-3-4v-7l8-7 15-6 20-3 29-1 13-4z" fill="#313031"/>
<path transform="translate(474,1794)" d="m0 0h6l4 6 11 27 15 40 1 4h-8l-3-3-5-14-2-1h-26l-8 1-6 16-2 1h-6l1-7 6-18 12-32 7-17zm2 14-3 5-7 19-4 11v2l2 1h27l-2-10-7-20-5-8z" fill="#343334"/>
<path transform="translate(1401,1793)" d="m0 0 5 2 12 30 11 30 5 15v1h-8l-4-9-3-8-33-1-3 1-6 16-2 1h-7l2-9 11-29 13-34 4-5zm-1 15-5 10-9 25v3h29l-2-9-6-19-4-8z" fill="#333233"/>
<path transform="translate(1121,1793)" d="m0 0h28l9 2 7 5 5 10v12l-3 8-7 6-10 3h-21v30l-1 2h-7l-1-1v-76zm10 7-2 1v29l2 1h20l6-3 3-3 1-3v-12l-3-6-5-3-6-1z" fill="#323132"/>
<path transform="translate(774,1793)" d="m0 0h5l-2 4-12 14-10 11-7 8 1 5 10 10 7 8 14 15 1 3-1 1-8-1-8-7-7-8-14-15-5-4-1 34h-8l-1-2v-23l1-52h8v32l6-2 10-10 7-8 8-9z" fill="#323132"/>
<path transform="translate(1675,1793)" d="m0 0h39l1 5-1 2-31 1v26l29 1v6l-1 1h-29v29l33 1v6h-41l-1-1v-76z" fill="#353435"/>
<path transform="translate(866,1794)" d="m0 0h40l1 4-1 1-12 1h-20v28l24 1 2 4-2 1h-24v30h12l20 1 1 5-1 1h-41l-1-5v-22l1-49z" fill="#333233"/>
<path transform="translate(866,818)" d="m0 0 2 1 1 4 1 2-2 3-6-1-8 4-7 9-4 6v3l4-1 3-1 2-4 7-9 4-5 2 1-11 16-1 5 7-2 4-1-2 4 1 2h-2v3l-18 3-10 2-7 3h-11l-8-4-4-5-3-9 3-5 10-5 37-13zm-24 16-30 10-4 3 1 5 5 5 4 2 7-1 10-8 5-5 5-6 1-5z" fill="#090809"/>
<path transform="translate(1009,1793)" d="m0 0h27l2 2-1 4-21 2-1 70h-8l-1-70-18-1-3-1v-5z" fill="#343334"/>
<path transform="translate(888,916)" d="m0 0h14l1 1 8 1 23 1 15 4-3 2-10-2-10 4-5 5h-26l-22-1-8-3v-2l-7-2h-7v-2l-13-3v-1h39l10-1zm29 6-1 3-11 2-20-1-3-3v2l-6-2h-9l2 3 19 3h26l5-2-1-5z" fill="#323132"/>
<path transform="translate(1255,1794)" d="m0 0h7l1 1 1 66 1 3 26 1 1 3-1 3h-36l-1-22v-54z" fill="#323132"/>
<path transform="translate(1131,1297)" d="m0 0 3 1-14 7-22 9h-3l1 4 2 1h8l28-5 35-12 3 1-9 4-25 9-19 10-2 2 1 5 1 2-9-3-15-7-20-8-4-2 2-2v-3l5 2 12-3 16-3 20-7z" fill="#0C0B0C"/>
<path transform="translate(725,1301)" d="m0 0h2l-1 5-8 6-8 3-14 3-29 2-13 3-4 2-10 2-1 5 1 3 13 1 7-1 5 2-1 2h-23l-6-6v-7l8-7 15-6 20-3 29-1 13-4z" fill="#0A0A0B"/>
<path transform="translate(1281,827)" d="m0 0 2 1-16 11-14 10-27 14-3-1h-6v2l-10 4-9 4-9 3-4-1h-8l-5-1 4-3 24-10 16-8 7-2-1 3-17 8 10-3 11-5 23-8 15-8 10-6z" fill="#343334"/>
<path transform="translate(982,1257)" d="m0 0h9l18 4 32 12 15 3 22 2 1 2-7 1h-10l-22-2-33-8-25-4-1-1z" fill="#070708"/>
<path transform="translate(1422,889)" d="m0 0h2l-2 6-37 37-11 9-15 12-9 6-4 1-5-2-1-4 19-12 17-12 13-10 15-14 15-15z" fill="#0A0A0B"/>
<path transform="translate(1370,832)" d="m0 0h2v4l4-1-4 4-11 7-18 13-21 16-18 13-10 6-6 1-5-1-5 3-3-1 5-4 18-10 21-12 19-13 18-13 10-7 1-4z" fill="#313031"/>
<path transform="translate(1388,839)" d="m0 0v3l-10 9-13 10-11 9-15 10-14 9-16 13-5 4v-2l-4 3-2-1-3-3 12-8 15-11 26-17 12-8 21-16z" fill="#323132"/>
<path transform="translate(896,889)" d="m0 0h1v5l46 1 36 2 22 2 25 5 6 2-4 3-5 1-15-4-27-4-36-3-47-2-8-1v-1h6z" fill="#323132"/>
<path transform="translate(1395,854)" d="m0 0v3l-5 5-11 9-11 8-14 12-13 12-8 6-3-2-2-1-6-1 4-3 12-7 13-9 16-13 8-7 11-6z" fill="#323132"/>
<path transform="translate(1311,839)" d="m0 0 2 1-12 9-14 10-11 8-16 13-9 6v2l4 3h-6l-2-5-4-1v-2l-4-1 4-4 23-11 15-9 20-13z" fill="#333233"/>
<path transform="translate(1419,874)" d="m0 0h2l-2 4-13 11-9 7-13 11-11 9-6 4-4 1-5 5h-4l-7 4v-3l15-12 14-10 16-12 19-14z" fill="#313031"/>
<path transform="translate(1029,1394)" d="m0 0h6l-2 1 4 4 11 5 19 7 15 6 16 6-1 2 1 6h-2v3h-7v-1h6v-2l-9-3-26-14-6-4-18-8-8-4z" fill="#323132"/>
<path transform="translate(930,1065)" d="m0 0h5l4 3h-8v4l-23 2h-12l-20-1-17-2-16-1v-1l44-1 34-2z" fill="#323132"/>
<path transform="translate(1327,849)" d="m0 0 2 1-18 14-11 8-27 18-5 3v3l2 1v2h-3l-2-4 1-2-3-1-4-4 15-8 16-8 18-11z" fill="#333233"/>
<path transform="translate(1308,825)" d="m0 0 2 1-14 10-26 16-17 12-11 9-7 5h-2v-2l-5-1-3-3 33-17 19-11 20-12z" fill="#353435"/>
<path transform="translate(782,1082)" d="m0 0 9 2 17 4 8 1 31 2 3 1v3l-6 2h-21l-20-4-12-4-8-4z" fill="#0C0C0D"/>
<path transform="translate(952,785)" d="m0 0h1v6l5-2 2-2h8l-4 6h6l3-4v-3l4 2v3l-4 6 12-7 2 4-4 5-1 2 5-1-2 3h-9l-9 3-3-1-7-8-3-2v-3l-3-1z" fill="#313031"/>
<path transform="translate(863,888)" d="m0 0h1l1 9 2 1-34 2-44 5-29 5-7-1 3-2 23-5 31-4 42-3h11z" fill="#323132"/>
<path transform="translate(891,907)" d="m0 0h68l9 2 1 5-6 3-12 3-13-1-2-2 16-1 6-2-9-2-23-1-18-2-17-1z" fill="#333233"/>
<path transform="translate(950,824)" d="m0 0h11l3 2 1 7-4 15-7 9-1 1h-8l-6-3-2-3 11 1 5-2 5-5 1-2v-8l-1-3-5-1h-12l-8 2 2-4 11-5z" fill="#0D0D0E"/>
<path transform="translate(1219,1416)" d="m0 0h3l-1 4-11 9-14 10-9 5h-6l-4-3 1-4 20-9 13-7z" fill="#0A0A0B"/>
<path transform="translate(997,1399)" d="m0 0 15 6 43 15 13 5-4 2-6 1v2l-5-2-28-14-27-11-5-2z" fill="#323132"/>
<path transform="translate(1229,1349)" d="m0 0 4 1-18 10-14 10-10 6h-6l-5-1-3-1 5-4 29-14z" fill="#302F30"/>
<path transform="translate(964,1401)" d="m0 0 19 9 29 11 20 8 7 3v1h-13l-3-2-1 2-39-20-21-10z" fill="#302F30"/>
<path transform="translate(863,829)" d="m0 0 2 1-11 16-1 5 7-2 4-1-2 4 1 2h-2v3l-9-1-4-2-7 2-5-2-1-5 5-5 4-5 2-5-3-1h8l-5 9-3 4v3l4-1 3-1 2-4 7-9z" fill="#313031"/>
<path transform="translate(1375,888)" d="m0 0 2 1-13 11-11 9-13 12-10 10-9 6-4-5 13-9 13-11 11-9 13-10z" fill="#313031"/>
<path transform="translate(997,886)" d="m0 0 13 1 1 4 9 2 7 3-2 3-11-1-17-3-16-3v-1l7-1z" fill="#302F30"/>
<path transform="translate(1422,889)" d="m0 0h2l-2 6-28 28h-3l-9 9-6 1v-3l13-10 15-14 15-15z" fill="#313031"/>
<path transform="translate(1013,1823)" d="m0 0h1l1 48h-8l1-38 5-1z" fill="#030304"/>
<path transform="translate(784,968)" d="m0 0 30 3 9 2 1 3-4 1h-22l-13-1-2-1v-6z" fill="#313031"/>
<path transform="translate(932,1233)" d="m0 0 7 4 8 5 17 8 3 3h-10l-14-2-5-3-6-12z" fill="#09090A"/>
<path transform="translate(642,1375)" d="m0 0 2 1 1 15v27l-5-1-1 6-3-1h2l1-40 2-6z" fill="#323132"/>
<path transform="translate(707,1058)" d="m0 0 16 4 18 5 6 4 1 3-1 1h-9l-20-8-11-7z" fill="#0F0E0F"/>
<path transform="translate(1233,1328)" d="m0 0 1 3-13 8-26 14-9-3 3-2 33-15z" fill="#2C2B2C"/>
<path transform="translate(922,1417)" d="m0 0 5 1 34 12 20 8-2 2h-4v3l-5-2-37-18-11-5z" fill="#323132"/>
<path transform="translate(1242,1359)" d="m0 0 3 1-9 6-22 12-6 4-3-1-5 2v-5l15-8 23-10z" fill="#262627"/>
<path transform="translate(755,1056)" d="m0 0 11 1 28 4 1 5-2 2-5 1-17-5-10-4-6-3z" fill="#302F30"/>
<path transform="translate(997,969)" d="m0 0h8l1 5-1 1-9 1-33 1v-3l24-4z" fill="#323132"/>
<path transform="translate(1175,1318)" d="m0 0 3 1-1 2-36 12-22 7h-2l2-4 36-12z" fill="#161617"/>
<path transform="translate(727,1119)" d="m0 0 15 5 9 5 3 3-1 8-5 9h-1v-10l-4-7-13-9-4-3z" fill="#0C0C0D"/>
<path transform="translate(1013,1210)" d="m0 0 17 6 11 8-1 2-18-4-9-3-2-3v-5z" fill="#0A0A0B"/>
<path transform="translate(898,802)" d="m0 0 3 1v3l1 3-2 4v2l-3 3-6 3-3 1-1 3v-4l-4 1 1-5 6-8 4-5z" fill="#313031"/>
<path transform="translate(667,1124)" d="m0 0 12 2 19 8 11 5-3 1-6-1-1 3-19-9-11-7z" fill="#302F30"/>
<path transform="translate(674,1084)" d="m0 0 6 2 21 10 10 3 1 3-4 9-3 3-3 1-2-2 5-5 1-4-16-8-12-7-4-3z" fill="#323132"/>
<path transform="translate(1037,1157)" d="m0 0h3l1 4-3 6-8 8-11 2-2-1v-2l8-4 8-10z" fill="#09090A"/>
<path transform="translate(1173,843)" d="m0 0v3l-25 14-13 9-7 1-1-3 24-13 12-7z" fill="#302F30"/>
<path transform="translate(679,1396)" d="m0 0 4 1v35l-5-3v-32z" fill="#313031"/>
<path transform="translate(1065,847)" d="m0 0h2l-2 4-4 3-1 3 23-8 3 1-20 12v-2l-9 1-3-9z" fill="#2F2E2F"/>
<path transform="translate(960,1418)" d="m0 0 9 3 19 7 17 7v2l-3 1-2 1v-2l-5 1-28-15-7-4z" fill="#333233"/>
<path transform="translate(1183,853)" d="m0 0 2 1-5 4-13 9-8 7h-3v-2l-7 1-2-2 17-9 18-8z" fill="#323132"/>
<path transform="translate(1059,1392)" d="m0 0 5 2 8 6 7 6 3 3-5-2-8-4-11-1-6-4v-5h6z" fill="#323132"/>
<path transform="translate(853,907)" d="m0 0h8l4 2-5 2-28 2h-9l-1-4z" fill="#323132"/>
<path transform="translate(896,889)" d="m0 0h1v5l46 1 9 1 1 2h-33l-22-1-8-1v-1h6z" fill="#292829"/>
<path transform="translate(664,1383)" d="m0 0h1l1 8 1 26 2 13-5-2-2 2 1-39z" fill="#121112"/>
<path transform="translate(669,1023)" d="m0 0h6v4l-5 4 1 7 2 6-5-2-6-7 1-7 4-4z" fill="#0A0A0B"/>
<path transform="translate(888,916)" d="m0 0h14l1 7-4 4-10-1-1-1z" fill="#060607"/>
<path transform="translate(802,1010)" d="m0 0 11 1 8 1 31 1v1h-10v4h6v1h-9l-25-5-12-3z" fill="#323132"/>
<path transform="translate(711,1035)" d="m0 0 5 1 19 8 3 4v3l-6-1-13-7-8-6z" fill="#0E0D0E"/>
<path transform="translate(920,1036)" d="m0 0h5l-1 2-2 3h5v1h-16l-27-1-2-2 32-2z" fill="#323132"/>
<path transform="translate(826,1186)" d="m0 0 10 3 19 8 5 2-4 1-13-4-10-1-5-2z" fill="#111112"/>
<path transform="translate(866,818)" d="m0 0 2 1 1 4 1 2-2 3-6-1-6 2-1-2h-11l3-2z" fill="#323132"/>
<path transform="translate(709,1126)" d="m0 0h5l13 11v4l-5-1 1 1-1 2-3-1-1-4-11-11z" fill="#2F2E2F"/>
<path transform="translate(960,837)" d="m0 0h1l1 9-7 10-2 2h-8l-6-3-2-3 11 1 5-2 5-5z" fill="#131213"/>
<path transform="translate(1205,1341)" d="m0 0 3 1-2 2 6-2v2l-17 9-9-3 3-2z" fill="#1C1B1C"/>
<path transform="translate(807,1249)" d="m0 0 10 1 14 5 1 2-6-1h-18l-3-2v-4z" fill="#101011"/>
<path transform="translate(985,911)" d="m0 0 30 4-4 4-17-2-9-3z" fill="#323132"/>
<path transform="translate(1110,850)" d="m0 0 3 1-16 9-9 5-4-1v2l-4 1-4-3 28-11z" fill="#2E2E2F"/>
<path transform="translate(784,968)" d="m0 0 1 2 18 1 2 1-1 3-5 1h-14l-2-1v-6z" fill="#0B0B0C"/>
<path transform="translate(1262,1364)" d="m0 0 3 1-4 4-3 1-3 3-7 5-5 3-3-1-2 3h-2v2l-3 1v-2l-2-1 17-10z" fill="#2B2A2B"/>
<path transform="translate(871,896)" d="m0 0h12v4l-7 6h-5l-4-8z" fill="#323132"/>
<path transform="translate(899,1164)" d="m0 0 8 1 9 2 12 1-4 2 1 3-30-5 4-2z" fill="#181718"/>
<path transform="translate(863,888)" d="m0 0h1l1 9 2 1-21 1h-17l3-2 20-2h11z" fill="#0C0C0D"/>
<path transform="translate(1018,769)" d="m0 0 4 4 9 2-4 3h-2v3h2v2l2 1-1 2h-2l-1 2-3-1-1-9-3 1z" fill="#302F30"/>
<path transform="translate(1051,1276)" d="m0 0 27 2 1 2-7 1h-10l-14-1-4-3z" fill="#2C2B2C"/>
<path transform="translate(992,827)" d="m0 0 5 2 2 10-2 9h-4l1-4-2-9z" fill="#141314"/>
<path transform="translate(952,781)" d="m0 0 5 2 7 1 7-2-1 3 2 1-1 1-11 1-3 3h-4z" fill="#121213"/>
<path transform="translate(879,1327)" d="m0 0 17 1-1 3-13 2v2l-4-1v-6z" fill="#323132"/>
<path transform="translate(707,1058)" d="m0 0 16 4 4 2v2l1 2h-8l-12-7z" fill="#2F2E2F"/>
<path transform="translate(1169,1302)" d="m0 0 3 1-9 4-25 9-3 1-1-3z" fill="#1E1D1E"/>
<path transform="translate(622,1368)" d="m0 0 3 1h-2l1 30-2-1-2 2-1-2v-16l1 3h2z" fill="#323132"/>
<path transform="translate(1280,1865)" d="m0 0h11l1 3-1 3h-12l-2-2 1-3z" fill="#0B0B0C"/>
<path transform="translate(1249,1396)" d="m0 0 3 1-2 5-8 5-5-1 2-4z" fill="#121112"/>
<path transform="translate(853,907)" d="m0 0h8l4 2-5 2h-24v-2z" fill="#323132"/>
<path transform="translate(748,963)" d="m0 0 11 3 5 2v2l-25-1v-1l9-1z" fill="#323132"/>
<path transform="translate(801,912)" d="m0 0h2l-1 3-23 3-3 1-6-2v-1z" fill="#2E2D2E"/>
<path transform="translate(927,895)" d="m0 0h16l9 1 1 2h-28z" fill="#282728"/>
<path transform="translate(1134,854)" d="m0 0 3 1-10 6-15 7-4-2 2-2 16-6z" fill="#313031"/>
<path transform="translate(588,1366)" d="m0 0h1l1 16 2 1v5l-1-2-1 3-4-2v-15z" fill="#323132"/>
<path transform="translate(1175,1318)" d="m0 0 3 1-1 2-18 6-4-2 3-2z" fill="#2D2C2D"/>
<path transform="translate(715,1177)" d="m0 0 4 2 5 5 2 3v6l-4 1-5-14z" fill="#181718"/>
<path transform="translate(793,1062)" d="m0 0h2l-1 5-6 2-8-2v-3l12-1z" fill="#0B0B0C"/>
<path transform="translate(1212,1319)" d="m0 0 2 1-10 5-20 8-2-2 21-9z" fill="#2E2D2E"/>
<path transform="translate(814,1180)" d="m0 0 2 1-1 8-3 8-5-1 2-1 1-6z" fill="#2D2C2D"/>
<path transform="translate(874,1155)" d="m0 0h32l5 2v1h-15l-16-1-6-1z" fill="#323132"/>
<path transform="translate(1086,1124)" d="m0 0h2l-4 10 3 2h-7v-2l-3-1 6-8z" fill="#212122"/>
<path transform="translate(727,1119)" d="m0 0 15 5 2 2-1 3h-3l-14-8z" fill="#222122"/>
<path transform="translate(681,1108)" d="m0 0 10 3 6 3-1 4h-3l-12-9z" fill="#323132"/>
<path transform="translate(805,1172)" d="m0 0h2l-2 9-3 6h-3l1-6 4-8z" fill="#2B2A2B"/>
<path transform="translate(664,1383)" d="m0 0h1l1 8v20l-3-2v-18z" fill="#323132"/>
<path transform="translate(802,1240)" d="m0 0h2l-2 11-2 8-4-5 4-9z" fill="#181718"/>
<path transform="translate(1708,1865)" d="m0 0h7v6h-9v-3z" fill="#040405"/>
<path transform="translate(782,1082)" d="m0 0 9 2 7 2-3 4-6-2-6-3z" fill="#181819"/>
<path transform="translate(897,844)" d="m0 0 6 3 2 8h-4l-5-10z" fill="#19191A"/>
<path transform="translate(742,1261)" d="m0 0 3 1-5 4-2 1v4l-3-1 1-3h-2v-2h-6v-1z" fill="#282728"/>
<path transform="translate(711,1035)" d="m0 0 5 1 9 4-3 1-1 3-9-6z" fill="#2B2A2B"/>
<path transform="translate(784,1028)" d="m0 0 4 2v5l-4 1-4-2 1-4z" fill="#181819"/>
<path transform="translate(993,1325)" d="m0 0 4 1-6 7-4 2-1-4z" fill="#1B1A1B"/>
<path transform="translate(863,888)" d="m0 0h1l1 9 2 1h-19l4-3h11z" fill="#2F2E2F"/>
<path transform="translate(1242,1359)" d="m0 0 3 1-9 6-7-1 4-3z" fill="#272728"/>
<path transform="translate(1198,1308)" d="m0 0 4 1 1 3-3 3-5 1-2-2z" fill="#323132"/>
<path transform="translate(1131,1297)" d="m0 0 3 1-14 7-4 1-1-3z" fill="#161617"/>
<path transform="translate(1222,850)" d="m0 0v3l-16 7 2-4 8-4z" fill="#3B3A3B"/>
<path transform="translate(768,1277)" d="m0 0v3l-6 4h-5l-2-3z" fill="#343334"/>
<path transform="translate(1152,1325)" d="m0 0 5 1v2l-12 3-1-3z" fill="#1C1B1C"/>
<path transform="translate(1218,1295)" d="m0 0 11 6 3 3v2l-6-2-8-7z" fill="#222122"/>
<path transform="translate(747,1271)" d="m0 0h7l-3 4h-2l-1 2-5-2-1-3z" fill="#323132"/>
<path transform="translate(1086,1168)" d="m0 0h4l-1 3-13 1-2-2 1-1z" fill="#1D1D1E"/>
<path transform="translate(1116,1281)" d="m0 0h5l-1 5-7 1v-3z" fill="#121112"/>
<path transform="translate(1259,1368)" d="m0 0h2l-2 4-14 10v-3l10-7h2z" fill="#111011"/>
<path transform="translate(916,1168)" d="m0 0h12l-4 2 1 3-12-3z" fill="#2E2D2E"/>
<path transform="translate(722,1041)" d="m0 0 8 1 1 4h-2l-1 2-6-3z" fill="#121213"/>
<path transform="translate(1210,1342)" d="m0 0h2v2l-13 7-2-1 6-7 3 1z" fill="#141314"/>
<path transform="translate(1106,1091)" d="m0 0v3l-8 10-2 2-2-1 2-4z" fill="#1B1A1B"/>
<path transform="translate(1037,965)" d="m0 0 4 2-1 3h-10v-3z" fill="#2F2E2F"/>
<path transform="translate(1180,1332)" d="m0 0 4 1-14 7 1-4z" fill="#151415"/>
<path transform="translate(1145,1310)" d="m0 0h5l-1 2-14 5-1-3z" fill="#191819"/>
<path transform="translate(692,1174)" d="m0 0h4l5 5-4 2v-2h-2l-1 3-2-2h2z" fill="#2B2A2B"/>
<path transform="translate(674,1179)" d="m0 0 6 2 11 5-2 2-10-5-7-1v-2z" fill="#1A191A"/>
<path transform="translate(912,1153)" d="m0 0 4 1-1 4-7-1-2-2z" fill="#151516"/>
<path transform="translate(1116,1099)" d="m0 0 4 1 1 5-2 1-3-1v-2l-4-2z" fill="#323132"/>
<path transform="translate(1152,835)" d="m0 0h4l-1 4-5 3h-2l1-4z" fill="#262526"/>
<path transform="translate(698,1233)" d="m0 0 4 2 6 7-4 3-5-10z" fill="#1A191A"/>
<path transform="translate(1031,909)" d="m0 0 7 2 2 2-4 2-7-3z" fill="#302F30"/>
<path transform="translate(878,1313)" d="m0 0 5 1-1 4h-7z" fill="#161516"/>
<path transform="translate(882,1111)" d="m0 0 11 2-1 3-3 1-6-4z" fill="#282728"/>
<path transform="translate(1347,834)" d="m0 0 3 1-1 4-2 2h-4l2-5z" fill="#323132"/>
<path transform="translate(1212,1319)" d="m0 0 2 1-10 5-7 2 4-4z" fill="#302F30"/>
<path transform="translate(845,1194)" d="m0 0 5 1 10 4-4 1-13-4z" fill="#1E1E1F"/>
<path transform="translate(796,1087)" d="m0 0h7l-1 3 2 1-4 1-5-2z" fill="#121112"/>
<path transform="translate(997,1399)" d="m0 0 9 4v2l-5-1-8-3z" fill="#1F1F20"/>
<path transform="translate(1021,1120)" d="m0 0 5 1v6l-3-1-2-3-3-2z" fill="#292829"/>
<path transform="translate(846,908)" d="m0 0 4 2v1h-14v-2z" fill="#030304"/>
<path transform="translate(1141,1329)" d="m0 0h4l-1 3-6 2-4-1z" fill="#131213"/>
<path transform="translate(838,918)" d="m0 0h10l7 2v1h-8l-9-2z" fill="#1D1C1D"/>
<path transform="translate(1205,1341)" d="m0 0 3 1-5 2v2l-5 2-2-3z" fill="#201F20"/>
<path transform="translate(1129,1315)" d="m0 0 4 1-8 3-8-1v-1z" fill="#2E2D2E"/>
<path transform="translate(1022,1172)" d="m0 0h3l2 4-8 1-2-1v-2z" fill="#252425"/>
<path transform="translate(993,919)" d="m0 0 5 1h15v2h-19z" fill="#323132"/>
<path transform="translate(1030,907)" d="m0 0 7 1v2h-6l-5 1v-2z" fill="#100F10"/>
<path transform="translate(694,1408)" d="m0 0h2v13h-2z" fill="#161516"/>
<path transform="translate(1080,1141)" d="m0 0h6l1 2-6 5-2-2z" fill="#2C2B2C"/>
<path transform="translate(1043,1139)" d="m0 0h14l2 2h-10l-4 1z" fill="#2C2B2C"/>
<path transform="translate(1334,830)" d="m0 0h4l-2 5-4-1z" fill="#323132"/>
<path transform="translate(1261,821)" d="m0 0 2 1-1 4-3 2v-5z" fill="#2F2E2F"/>
<path transform="translate(1085,999)" d="m0 0h6l-1 3-5-1z" fill="#201F20"/>
<path transform="translate(937,1410)" d="m0 0h2l1 4h-4z" fill="#323132"/>
<path transform="translate(985,843)" d="m0 0 5 1 1 2-6-1z" fill="#262627"/>
<path transform="translate(974,918)" d="m0 0 8 1v1h-10z" fill="#323132"/>
<path transform="translate(828,917)" d="m0 0h10v1h-10z" fill="#323132"/>
<path transform="translate(1102,1420)" d="m0 0h2v4h-2z" fill="#323132"/>
<path transform="translate(792,1239)" d="m0 0h2l-2 4-1-3z" fill="#262526"/>
<path transform="translate(760,1222)" d="m0 0 2 1v2h-2z" fill="#323132"/>
<path transform="translate(797,1276)" d="m0 0 3 1h-3z" fill="#323132"/>
<path transform="translate(1086,848)" d="m0 0 3 1z" fill="#767576"/>
<path transform="translate(958,1417)" d="m0 0 2 1z" fill="#323132"/>
<path transform="translate(955,1416)" d="m0 0 2 1z" fill="#323132"/>
<path transform="translate(920,1416)" d="m0 0 2 1z" fill="#323132"/>
<path transform="translate(1084,1410)" d="m0 0 2 1z" fill="#323132"/>
<path transform="translate(1082,1409)" d="m0 0 2 1z" fill="#323132"/>
<path transform="translate(822,1303)" d="m0 0 2 1z" fill="#323132"/>
<path transform="translate(824,1302)" d="m0 0 2 1z" fill="#323132"/>
<path transform="translate(860,1200)" d="m0 0 2 1z" fill="#323132"/>
<path transform="translate(674,1104)" d="m0 0 2 1z" fill="#989798"/>
<path transform="translate(1283,826)" d="m0 0 2 1z" fill="#323132"/>
<path transform="translate(1286,824)" d="m0 0 2 1z" fill="#323132"/>
<path transform="translate(1013,1329)" d="m0 0" fill="#323132"/>
<path transform="translate(943,1294)" d="m0 0" fill="#323132"/>
<path transform="translate(945,1293)" d="m0 0" fill="#323132"/>
<path transform="translate(862,1201)" d="m0 0" fill="#323132"/>
<path transform="translate(680,1107)" d="m0 0" fill="#FEFEFE"/>
<path transform="translate(676,1105)" d="m0 0" fill="#FEFEFE"/>
<path transform="translate(1107,1090)" d="m0 0" fill="#020203"/>
<path transform="translate(1108,1089)" d="m0 0" fill="#323132"/>
<path transform="translate(1109,1088)" d="m0 0" fill="#323132"/>
<path transform="translate(1126,841)" d="m0 0" fill="#323132"/>
<path transform="translate(1127,840)" d="m0 0" fill="#323132"/>
<path transform="translate(1285,825)" d="m0 0" fill="#323132"/>
<path transform="translate(1310,824)" d="m0 0" fill="#323132"/>
<path transform="translate(1288,823)" d="m0 0" fill="#323132"/>
</svg>
